<?xml version="1.0" encoding="utf-8"?>
<!-- Generator: Adobe Illustrator 23.0.2, SVG Export Plug-In . SVG Version: 6.00 Build 0)  -->
<svg version="1.1" id="Capa_1" xmlns="http://www.w3.org/2000/svg" xmlns:xlink="http://www.w3.org/1999/xlink" x="0px" y="0px"
	 viewBox="0 0 266.2 117.6" style="enable-background:new 0 0 266.2 117.6;" xml:space="preserve">
<style type="text/css">
	.st0{clip-path:url(#SVGID_2_);}
	.st1{fill:#FFFFFF;}
	.st2{fill:#FFFFFF;stroke:#FFFFFF;stroke-miterlimit:10;}
</style>
<g id="Group_17" transform="translate(0 117.589)">
	<g>
		<defs>
			<polyline id="SVGID_1_" points="266.2,-117.6 266.2,0 0,0 			"/>
		</defs>
		<clipPath id="SVGID_2_">
			<use xlink:href="#SVGID_1_"  style="overflow:visible;"/>
		</clipPath>
		<g id="Group_16" class="st0">
			<g id="Group_9" transform="translate(12.021 -5.381)">
				<path id="Path_10_1_" class="st1" d="M-10.7-59.9"/>
			</g>
			<g id="Group_14" transform="translate(260.198 -18.718)">
				<path id="Path_16" class="st1" d="M0,0c0,1.1-0.6,2.2-1.5,2.8L-14-18.8l7.3-6.1l1.2,2.1C-1.9-16.5,0-9.4,0-2.2L0,0z M-37-1.6
					l-2.4,1.9c0,0,0,0,0,0c0,0,0,0,0,0l-2,1.6c-1.1,0.9-2.3,1.7-3.6,2.4c-0.9,0.5-1.8,0.9-2.7,1.3c0,0-0.1,0-0.1,0
					c-0.9,0.3-1.9,0.1-2.5-0.6c-0.7-0.7-0.8-1.7-0.5-2.5c0.4-0.9,0.8-1.8,1.3-2.7c0.7-1.3,1.5-2.5,2.4-3.6l1.6-2c0,0,0,0,0,0
					l1.9-2.4L-12.3-44c2.9-3.1,6.9-4.9,11.1-4.9c0.7,0,1.4,0.1,2.2,0.2l1.3,0.2c0.5,0.1,0.9,0.5,1,1l0.2,1.3
					c0.7,4.9-1.1,9.9-4.7,13.3L-37-1.6z M-36.5,13.3l0,1.7c0,0.4-0.2,0.7-0.4,0.9l-5.9-10.3c0.2-0.1,0.4-0.3,0.7-0.4
					c0.2-0.1,0.4-0.2,0.5-0.3c0.6-0.4,1.1-0.8,1.6-1.2l0,0l1-0.7C-37.4,6.1-36.5,9.7-36.5,13.3 M-60.2-8.7l1.8,0
					c3.6,0,7.2,0.9,10.3,2.6l-0.7,0.9c-0.4,0.5-0.8,1.1-1.2,1.7c-0.1,0.2-0.2,0.3-0.3,0.5c-0.1,0.2-0.3,0.4-0.4,0.7l-10.3-5.9
					C-60.9-8.6-60.6-8.7-60.2-8.7 M-45.2-45.2l2.2,0c7.2,0,14.4,1.9,20.6,5.5l2.1,1.2l-6.1,7.3L-48-43.7
					C-47.4-44.7-46.3-45.2-45.2-45.2 M-4.9-26.5l5.2-4.7l0,0c4.2-3.9,6.2-9.6,5.4-15.3l-0.2-1.4c-0.2-1.5-1.4-2.7-3-3L1.3-51
					c-5.7-0.8-11.4,1.2-15.4,5.5l-4.7,5.2l-2.5-1.5c-6.6-3.8-14.2-5.8-21.8-5.8l-2.2,0c-2.1,0-4,1.1-5,2.9l-0.4,0.7
					c-0.3,0.6-0.1,1.3,0.4,1.6L-28-29.5L-45.4-9.8L-46.7-8c-3.6-2-7.7-3-11.8-3l-1.8,0c-1.2,0-2.4,0.7-3,1.8l-0.5,0.9
					c-0.2,0.3-0.2,0.6-0.1,0.9c0.1,0.3,0.3,0.6,0.5,0.7L-52-0.3c-0.3,0.6-0.6,1.2-0.9,1.9C-53.5,3-53.4,4.6-52.5,6
					c0.9,1.3,2.3,2.1,3.9,2.1c0.6,0,1.3-0.1,1.9-0.4c0,0,0.1,0,0.1,0c0.6-0.3,1.2-0.5,1.8-0.9l6.5,11.3c0.2,0.3,0.4,0.5,0.7,0.5
					c0.3,0.1,0.6,0,0.9-0.1l0.9-0.5h0c1.1-0.6,1.7-1.8,1.7-3l0-1.7c0-4.1-1.1-8.2-3-11.8l1.7-1.3l19.7-17.4L-2.9,5
					c0.3,0.6,1,0.8,1.6,0.4c0,0,0,0,0,0l0.7-0.4c1.8-1,2.9-3,2.9-5l0-2.2c0-7.7-2-15.2-5.8-21.8L-4.9-26.5z"/>
			</g>
			<g id="Group_15" transform="translate(252.709 -61.24)">
				<path id="Path_17" class="st1" d="M0,0c1.7-1,3.8-0.5,4.8,1.2c0.7,1.1,0.7,2.5,0,3.6C4.5,5.4,4.6,6.1,5.2,6.4
					C5.8,6.7,6.5,6.6,6.8,6c1.6-2.8,0.7-6.4-2-8c-1.8-1.1-4.1-1.1-6,0c-0.4,0.2-0.6,0.6-0.6,1c0,0.4,0.2,0.8,0.6,1
					C-0.8,0.2-0.4,0.2,0,0"/>
			</g>
		</g>
	</g>
</g>
<g>
	<path class="st2" d="M27,52.1c0.6-0.4,1.2-0.7,1.8-0.8c0.6-0.1,1.2-0.2,1.9-0.3l4.7-19.2c-0.1,0-0.2,0-0.4,0c-0.2,0-0.5,0-0.8-0.1
		c-0.3,0-0.6-0.1-0.8-0.2c-0.3-0.1-0.5-0.2-0.6-0.3c-0.1-0.1-0.1-0.2-0.2-0.4s-0.2-0.3-0.3-0.5c-0.1-0.2-0.2-0.3-0.2-0.5
		c-0.1-0.2-0.1-0.4-0.1-0.5c0-0.3,0.1-0.5,0.4-0.7c0.2-0.2,0.5-0.4,0.9-0.5c0.4-0.1,0.7-0.2,1.2-0.3s0.8-0.1,1.1-0.1
		c1.6,0,3.1,0,4.4,0.1c1.4,0.1,2.6,0.3,3.8,0.6c1.2,0.3,2.3,0.8,3.3,1.3c1,0.6,2,1.4,3,2.3c0.4,0.4,0.7,0.8,1,1.2
		c0.3,0.5,0.6,1,0.9,1.5c0.2,0.5,0.4,1.1,0.6,1.7s0.2,1.3,0.2,1.9c0,0.4,0,0.8-0.1,1.2c0,0.4-0.1,0.8-0.2,1
		c-0.4,1.5-0.9,2.8-1.5,3.9s-1.4,2.1-2.3,3c-0.9,0.9-1.8,1.6-2.9,2.3c-1,0.6-2.1,1.2-3.3,1.7c-1.1,0.5-2.3,0.9-3.4,1.2
		c-1.2,0.4-2.3,0.7-3.4,0.9h0c-0.5,0.2-1,0.3-1.6,0.4c-0.6,0.1-1.1,0.2-1.7,0.3c-0.6,0.1-1.2,0.1-1.7,0.2c-0.6,0-1.1,0.1-1.6,0.1
		c-0.6,0-1,0-1.4-0.1s-0.7-0.2-0.9-0.3c-0.2-0.1-0.4-0.3-0.5-0.4s-0.2-0.3-0.2-0.5c0-0.3,0.1-0.5,0.2-0.8S26.7,52.4,27,52.1z
		 M35.4,46.7c-0.2,0.6-0.3,1.3-0.5,2c-0.2,0.7-0.3,1.4-0.5,2l0.4-0.1c0.3-0.1,0.7-0.2,1.1-0.3c0.5-0.1,1-0.3,1.6-0.5
		c0.6-0.2,1.3-0.4,1.9-0.7s1.4-0.6,2.2-1c0.8-0.4,1.5-0.8,2.3-1.3c0.7-0.5,1.5-1,2.1-1.5c0.7-0.6,1.3-1.2,1.8-1.8
		c0.5-0.6,0.9-1.3,1.2-2c0.3-0.7,0.5-1.4,0.5-2.2c0-0.8-0.2-1.5-0.5-2.2c-0.3-0.7-0.7-1.3-1.2-1.9c-0.5-0.6-1.1-1.1-1.8-1.6
		c-0.7-0.5-1.4-0.9-2.1-1.2s-1.5-0.6-2.2-0.7c-0.8-0.2-1.5-0.3-2.1-0.3c-0.9,2.4-1.8,4.9-2.4,7.5C36.6,41.5,36,44.1,35.4,46.7z"/>
	<path class="st2" d="M71.8,55.2c-0.3,0-0.5-0.1-0.7-0.2c-0.2-0.1-0.4-0.2-0.5-0.4c-0.1-0.2-0.2-0.4-0.3-0.6
		c-0.1-0.2-0.1-0.4-0.1-0.6c0-0.2,0.1-0.5,0.2-0.8c0.1-0.3,0.2-0.7,0.4-1.1s0.3-0.9,0.5-1.3c0.2-0.5,0.4-0.9,0.5-1.3
		s0.3-0.8,0.5-1.2c0.1-0.4,0.2-0.6,0.3-0.8c0.1-0.2,0.1-0.5,0.2-0.8c0.1-0.3,0.2-0.7,0.3-1c0.1-0.4,0.2-0.8,0.3-1.2s0.2-0.8,0.3-1.2
		c-0.2,0-0.4,0.1-0.7,0.1c-0.3,0-0.5,0.1-0.8,0.1c-0.4,0-0.8,0.1-1.2,0.2s-0.8,0.2-1.2,0.3c-0.4,0.1-0.9,0.2-1.3,0.3
		c-0.5,0.1-0.9,0.2-1.5,0.3c-0.8,0.2-1.5,0.3-2.3,0.5c-0.8,0.2-1.5,0.3-2.4,0.3c-0.3,0-0.5-0.1-0.7-0.2c-0.2-0.1-0.5-0.2-0.7-0.3
		c-0.3,0.4-0.5,0.8-0.7,1.3c-0.2,0.5-0.4,0.9-0.6,1.4c-0.2,0.5-0.4,1-0.5,1.4c-0.2,0.5-0.3,0.9-0.4,1.3c-0.1,0.2-0.1,0.5-0.2,0.9
		c0,0.4-0.1,0.7-0.1,1.1c0,0.4-0.1,0.7-0.1,1.1c0,0.3-0.1,0.6-0.1,0.8c0,0.2-0.1,0.4-0.2,0.6c-0.1,0.2-0.3,0.4-0.4,0.5
		c-0.2,0.2-0.3,0.3-0.5,0.4c-0.2,0.1-0.4,0.1-0.6,0.1c-0.4,0-0.6-0.1-0.9-0.3c-0.2-0.2-0.4-0.5-0.5-0.8c-0.1-0.3-0.2-0.6-0.3-1
		c-0.1-0.4-0.1-0.7-0.1-1c0-0.8,0.1-1.6,0.3-2.4c0.2-0.8,0.4-1.7,0.8-2.5c0.3-0.9,0.7-1.7,1.1-2.6c0.4-0.9,0.9-1.7,1.4-2.6
		c0.4-0.8,0.9-1.7,1.6-2.7s1.3-2,2.1-3.1c0.8-1.1,1.6-2.1,2.5-3.1c0.9-1,1.8-1.9,2.8-2.7c1-0.8,1.9-1.4,3-1.9c1-0.5,2-0.7,3-0.7
		c1,0,1.9,0.2,2.6,0.6c0.7,0.4,1.3,0.9,1.7,1.5c0.4,0.6,0.7,1.4,0.9,2.3c0.2,0.9,0.3,1.8,0.3,2.7c0,0.8-0.1,1.7-0.2,2.6
		c-0.1,0.9-0.2,1.8-0.4,2.6s-0.3,1.7-0.5,2.5c-0.2,0.8-0.4,1.5-0.5,2.2l-0.7,2.6c0,0.1-0.1,0.2-0.1,0.5s-0.2,0.5-0.3,0.8
		c-0.1,0.3-0.2,0.7-0.4,1c-0.1,0.4-0.3,0.7-0.4,1.1c-0.1,0.4-0.3,0.7-0.4,1s-0.2,0.5-0.3,0.7l0,0c-0.1,0.3-0.2,0.7-0.3,1
		c-0.1,0.3-0.2,0.6-0.4,0.9c-0.2,0.3-0.4,0.5-0.7,0.7C72.6,55.1,72.3,55.2,71.8,55.2z M72.8,31.5c-0.6,0-1.1,0.1-1.7,0.4
		c-0.6,0.2-1.1,0.5-1.7,0.9c-0.5,0.4-1.1,0.8-1.6,1.3c-0.5,0.5-1,1-1.5,1.6c-0.5,0.5-0.9,1.1-1.3,1.6c-0.4,0.5-0.8,1-1.1,1.5
		c-0.1,0.1-0.1,0.2-0.2,0.3c-0.1,0.1-0.2,0.3-0.2,0.4c-0.1,0.1-0.2,0.3-0.2,0.5s-0.1,0.3-0.2,0.4h1.9c0.7,0,1.5-0.1,2.4-0.2
		c0.9-0.1,1.8-0.2,2.7-0.4c0.9-0.1,1.7-0.3,2.5-0.4c0.7-0.1,1.3-0.3,1.7-0.3c0.1-0.2,0.1-0.4,0.1-0.7c0-0.3,0.1-0.6,0.1-0.9
		c0-0.3,0.1-0.7,0.1-1.1c0-0.4,0-0.8,0-1.2c0-0.3,0-0.7,0-1.1c0-0.4-0.1-0.8-0.2-1.2c-0.1-0.4-0.3-0.7-0.6-1
		C73.6,31.6,73.3,31.5,72.8,31.5z"/>
	<path class="st2" d="M87.9,32.1c0.1-0.3,0.2-0.7,0.3-1.1c0.1-0.4,0.3-0.7,0.5-1c0.2-0.3,0.4-0.6,0.7-0.8c0.3-0.2,0.7-0.3,1.2-0.3
		c0.4,0,0.8,0.1,1.2,0.4c0.3,0.2,0.7,0.5,0.9,0.7c0.3,0.2,0.6,0.6,0.9,1.3c0.3,0.7,0.6,1.5,0.9,2.4c0.3,1,0.7,2,1,3.3
		c0.4,1.2,0.8,2.5,1.2,3.8c0.4,1.3,0.9,2.7,1.5,4.1c0.6,1.4,1.2,2.7,1.9,4c0.1,0.2,0.2,0.4,0.4,0.7s0.3,0.5,0.5,0.8
		c0.2,0.2,0.3,0.4,0.4,0.6c0.1,0.2,0.2,0.2,0.3,0.2c0,0,0.1-0.1,0.1-0.3c0.1-0.2,0.1-0.4,0.2-0.7c0.1-0.3,0.1-0.5,0.2-0.8
		c0.1-0.3,0.1-0.5,0.2-0.7c0.2-0.6,0.5-1.2,0.8-2c0.3-0.8,0.6-1.7,0.9-2.7s0.7-2.3,1.1-3.8s0.9-3.2,1.4-5.2c0.1-0.5,0.3-1.1,0.4-1.7
		s0.3-1.3,0.4-1.9c0.1-0.6,0.2-1.3,0.4-1.9c0.1-0.6,0.2-1.2,0.2-1.6c0-0.1,0-0.2,0-0.4c0-0.2,0-0.4,0.1-0.6c0-0.2,0.1-0.5,0.1-0.7
		c0.1-0.3,0.1-0.5,0.2-0.7c0.1-0.2,0.2-0.4,0.3-0.5c0.1-0.1,0.3-0.2,0.5-0.2c0.2,0,0.4,0,0.7,0.1c0.3,0.1,0.5,0.1,0.7,0.2
		c0.2,0.3,0.5,0.7,0.7,1.2c0.2,0.5,0.3,1.1,0.3,1.9c0,0.5-0.1,1.1-0.2,1.8c-0.1,0.7-0.2,1.4-0.4,2.2c-0.2,0.8-0.3,1.6-0.5,2.4
		c-0.2,0.8-0.4,1.6-0.6,2.4c-0.2,0.8-0.4,1.5-0.6,2.1s-0.3,1.2-0.5,1.6c-0.2,0.7-0.5,1.5-0.7,2.3c-0.2,0.8-0.5,1.6-0.8,2.4
		c-0.3,0.9-0.6,1.8-1,2.7c-0.3,1-0.7,2-1.2,3.1c-0.2,0.5-0.4,1-0.7,1.5s-0.5,0.9-0.8,1.3s-0.7,0.7-1.1,1s-0.8,0.4-1.3,0.4
		c-0.3,0-0.6,0-0.9-0.1c-0.3-0.1-0.6-0.2-0.8-0.5c-1-1.2-2-2.6-2.8-4.1c-0.8-1.5-1.5-3.1-2.2-4.8c-0.6-1.7-1.2-3.3-1.7-5
		c-0.5-1.7-0.9-3.3-1.3-4.9l-0.1-0.4c-0.1-0.2-0.1-0.4-0.1-0.5c0-0.2-0.1-0.4-0.1-0.5c0-0.2-0.1-0.3-0.2-0.4
		c-0.1-0.1-0.1-0.1-0.2-0.1c-0.1,0-0.2,0.1-0.3,0.4c-0.1,0.3-0.2,0.6-0.3,0.9c-0.1,0.3-0.2,0.7-0.3,1c-0.1,0.3-0.2,0.5-0.2,0.6
		c-0.1,0.3-0.2,0.8-0.4,1.4c-0.2,0.6-0.4,1.3-0.6,2.1c-0.2,0.8-0.5,1.6-0.7,2.4c-0.3,0.9-0.5,1.7-0.7,2.5s-0.5,1.5-0.7,2.2
		c-0.2,0.7-0.4,1.2-0.5,1.6c-0.1,0.3-0.3,0.8-0.4,1.3c-0.2,0.5-0.3,1-0.5,1.6c-0.2,0.5-0.3,1-0.5,1.4c-0.1,0.4-0.2,0.7-0.3,0.9
		c-0.2,0.5-0.4,0.8-0.7,1.1c-0.3,0.2-0.6,0.4-0.9,0.4c-0.2,0-0.4-0.1-0.6-0.2c-0.2-0.1-0.4-0.3-0.5-0.5c-0.1-0.2-0.3-0.4-0.4-0.6
		c-0.1-0.2-0.1-0.4-0.1-0.6c0-0.1,0-0.3,0.1-0.5c0.1-0.2,0.2-0.6,0.3-1.1l0.5-1.9L87.9,32.1z"/>
	<path class="st2" d="M118.5,32.1c0.1-0.3,0.2-0.7,0.3-1.1c0.1-0.4,0.3-0.7,0.5-1c0.2-0.3,0.4-0.6,0.7-0.8c0.3-0.2,0.7-0.3,1.2-0.3
		c0.4,0,0.8,0.1,1.2,0.4c0.3,0.2,0.7,0.5,0.9,0.7c0.3,0.2,0.6,0.6,0.9,1.3c0.3,0.7,0.6,1.5,0.9,2.4c0.3,1,0.7,2,1,3.3
		c0.4,1.2,0.8,2.5,1.2,3.8c0.4,1.3,0.9,2.7,1.5,4.1c0.6,1.4,1.2,2.7,1.9,4c0.1,0.2,0.2,0.4,0.4,0.7s0.3,0.5,0.5,0.8
		c0.2,0.2,0.3,0.4,0.4,0.6c0.1,0.2,0.2,0.2,0.3,0.2c0,0,0.1-0.1,0.1-0.3c0.1-0.2,0.1-0.4,0.2-0.7c0.1-0.3,0.1-0.5,0.2-0.8
		c0.1-0.3,0.1-0.5,0.2-0.7c0.2-0.6,0.5-1.2,0.8-2c0.3-0.8,0.6-1.7,0.9-2.7c0.3-1.1,0.7-2.3,1.1-3.8c0.4-1.5,0.9-3.2,1.4-5.2
		c0.1-0.5,0.3-1.1,0.4-1.7c0.1-0.6,0.3-1.3,0.4-1.9c0.1-0.6,0.2-1.3,0.4-1.9c0.1-0.6,0.2-1.2,0.2-1.6c0-0.1,0-0.2,0-0.4
		c0-0.2,0-0.4,0.1-0.6c0-0.2,0.1-0.5,0.1-0.7c0.1-0.3,0.1-0.5,0.2-0.7c0.1-0.2,0.2-0.4,0.3-0.5c0.1-0.1,0.3-0.2,0.5-0.2
		s0.4,0,0.7,0.1c0.3,0.1,0.5,0.1,0.7,0.2c0.2,0.3,0.5,0.7,0.7,1.2c0.2,0.5,0.3,1.1,0.3,1.9c0,0.5-0.1,1.1-0.2,1.8
		c-0.1,0.7-0.2,1.4-0.4,2.2c-0.2,0.8-0.3,1.6-0.5,2.4c-0.2,0.8-0.4,1.6-0.6,2.4c-0.2,0.8-0.4,1.5-0.6,2.1c-0.2,0.6-0.3,1.2-0.5,1.6
		c-0.2,0.7-0.5,1.5-0.7,2.3c-0.2,0.8-0.5,1.6-0.8,2.4c-0.3,0.9-0.6,1.8-1,2.7c-0.3,1-0.7,2-1.2,3.1c-0.2,0.5-0.4,1-0.7,1.5
		s-0.5,0.9-0.8,1.3s-0.7,0.7-1.1,1s-0.8,0.4-1.3,0.4c-0.3,0-0.6,0-0.9-0.1c-0.3-0.1-0.6-0.2-0.8-0.5c-1-1.2-2-2.6-2.8-4.1
		c-0.8-1.5-1.5-3.1-2.2-4.8c-0.6-1.7-1.2-3.3-1.7-5c-0.5-1.7-0.9-3.3-1.3-4.9l-0.1-0.4c-0.1-0.2-0.1-0.4-0.1-0.5
		c0-0.2-0.1-0.4-0.1-0.5c0-0.2-0.1-0.3-0.2-0.4c-0.1-0.1-0.1-0.1-0.2-0.1c-0.1,0-0.2,0.1-0.3,0.4c-0.1,0.3-0.2,0.6-0.3,0.9
		c-0.1,0.3-0.2,0.7-0.3,1c-0.1,0.3-0.2,0.5-0.2,0.6c-0.1,0.3-0.2,0.8-0.4,1.4c-0.2,0.6-0.4,1.3-0.6,2.1c-0.2,0.8-0.5,1.6-0.7,2.4
		c-0.3,0.9-0.5,1.7-0.7,2.5s-0.5,1.5-0.7,2.2c-0.2,0.7-0.4,1.2-0.5,1.6c-0.1,0.3-0.3,0.8-0.4,1.3c-0.2,0.5-0.3,1-0.5,1.6
		c-0.2,0.5-0.3,1-0.5,1.4c-0.1,0.4-0.2,0.7-0.3,0.9c-0.2,0.5-0.4,0.8-0.7,1.1c-0.3,0.2-0.6,0.4-0.9,0.4c-0.2,0-0.4-0.1-0.6-0.2
		c-0.2-0.1-0.4-0.3-0.5-0.5c-0.1-0.2-0.3-0.4-0.4-0.6c-0.1-0.2-0.1-0.4-0.1-0.6c0-0.1,0-0.3,0.1-0.5c0.1-0.2,0.2-0.6,0.3-1.1
		l0.5-1.9L118.5,32.1z"/>
	<path class="st2" d="M144.7,57.9c0-0.3,0.1-0.6,0.2-0.9c0.2-0.3,0.4-0.6,0.6-1s0.6-0.7,0.9-1.1c0.4-0.4,0.7-0.8,1.1-1.2
		c0.7-0.8,1.5-1.5,2.3-2.4c0.8-0.8,1.6-1.7,2.3-2.5c0.3-0.4,0.6-0.7,0.8-0.9s0.3-0.4,0.4-0.6s0.2-0.3,0.2-0.4s0.1-0.2,0.1-0.3
		c-0.5-0.7-1-1.4-1.4-2.2s-0.8-1.6-1.1-2.5c-0.3-0.9-0.6-1.7-0.9-2.6s-0.5-1.7-0.7-2.6c-0.2-0.8-0.4-1.5-0.6-2.3
		c-0.2-0.8-0.5-1.5-0.8-2c-0.2-0.4-0.4-0.9-0.6-1.3c-0.2-0.5-0.3-1-0.3-1.5c0-0.2,0-0.5,0.1-0.8s0.2-0.6,0.3-0.9
		c0.1-0.3,0.3-0.5,0.6-0.7s0.5-0.3,0.9-0.3c0.4,0,0.7,0.1,1,0.4c0.3,0.3,0.6,0.6,0.9,1c0.3,0.4,0.5,0.8,0.6,1.2s0.3,0.9,0.4,1.2
		c0.1,0.5,0.3,1.2,0.5,2c0.2,0.8,0.4,1.6,0.5,2.5c0.2,0.8,0.4,1.6,0.5,2.4c0.2,0.8,0.3,1.4,0.5,1.8c0.2,0.6,0.3,1.1,0.5,1.6
		s0.4,0.9,0.6,1.3c0.2,0.4,0.4,0.6,0.6,0.9c0.2,0.2,0.4,0.3,0.5,0.3c0.1,0,0.3-0.2,0.6-0.5c1-1.4,2.1-2.8,3.2-4.4
		c1.1-1.6,2.2-3.1,3.3-4.7c0.4-0.6,0.7-1.1,1-1.6c0.3-0.5,0.6-0.9,0.8-1.4c0.2-0.4,0.5-0.9,0.7-1.3c0.2-0.4,0.4-0.8,0.6-1.2l0.5-2
		c0-0.2,0.1-0.4,0.3-0.6c0.1-0.2,0.3-0.4,0.4-0.6c0.2-0.2,0.3-0.3,0.5-0.4c0.2-0.1,0.4-0.2,0.7-0.2c0.3,0,0.6,0.1,0.9,0.2
		c0.2,0.1,0.4,0.3,0.6,0.5c0.2,0.2,0.3,0.5,0.3,0.7c0.1,0.3,0.1,0.6,0.1,0.9c0,0.3-0.1,0.7-0.2,1.2c-0.1,0.4-0.3,0.9-0.5,1.4
		s-0.5,0.9-0.7,1.4c-0.3,0.5-0.5,0.9-0.8,1.2c-1.8,2.6-3.6,5.2-5.5,7.8c-1.9,2.6-3.8,5.2-5.7,7.6c-1.7,2.2-3.4,4.2-5,6
		c-1.6,1.8-3.1,3.5-4.5,4.8c-0.3,0.3-0.6,0.6-1,0.8c-0.4,0.3-0.8,0.4-1.2,0.4c-0.2,0-0.4,0-0.5-0.1c-0.1-0.1-0.3-0.2-0.4-0.4
		s-0.2-0.3-0.2-0.5C144.7,58.3,144.7,58.1,144.7,57.9z"/>
</g>
<g>
	<path class="st2" d="M46,63.4h-8.8v27.4h-3.4V63.4h-8.8v-3.1H46V63.4z"/>
	<path class="st2" d="M72.4,90.8h-4l-5.1-8.6c-1.1-1.8-2.1-3-3-3.6s-1.9-0.9-3.1-0.9h-3v13h-3.3V60.4h9c2.8,0,5,0.7,6.7,2.2
		c1.7,1.4,2.5,3.4,2.5,6c0,4.2-2.2,6.9-6.7,8.2v0.1c0.8,0.4,1.5,0.8,2.1,1.4c0.5,0.6,1.4,1.8,2.4,3.5L72.4,90.8z M54.2,63.5v11.2h5
		c1.8,0,3.4-0.5,4.5-1.6c1.2-1.1,1.8-2.5,1.8-4.3c0-1.7-0.5-2.9-1.6-3.9c-1.1-0.9-2.6-1.4-4.6-1.4H54.2z"/>
	<path class="st2" d="M100.1,90.8h-3.7l-3.3-8.7H80l-3.1,8.7h-3.7l11.7-30.5h3.4L100.1,90.8z M91.9,79.1l-4.9-13.2
		c-0.1-0.4-0.3-1-0.5-2h-0.1c-0.1,0.9-0.3,1.6-0.5,2l-4.8,13.2H91.9z"/>
	<path class="st2" d="M124.6,60.4l-11.3,30.5h-3.7L98.5,60.4h3.7l8.6,24.3c0.3,0.7,0.5,1.6,0.6,2.7h0.1c0.1-0.8,0.3-1.7,0.7-2.7
		l8.8-24.3H124.6z"/>
	<path class="st2" d="M145.1,90.8h-16V60.4h15.3v3.1h-12v10.4h11.1v3.1h-11.1v10.9h12.7V90.8z"/>
	<path class="st2" d="M166.6,90.8H151V60.4h3.3v27.4h12.3V90.8z"/>
	<path class="st2" d="M169.9,85.5c0.9,0.8,2.1,1.4,3.7,1.9c1.6,0.5,3.1,0.8,4.5,0.8c4.4,0,6.6-1.6,6.6-4.8c0-0.9-0.2-1.7-0.7-2.4
		s-1.1-1.3-1.9-1.8c-0.8-0.5-2.3-1.4-4.6-2.5c-3.3-1.7-5.4-3.2-6.3-4.4c-0.9-1.3-1.3-2.7-1.3-4.3c0-2.5,1-4.4,3-5.9
		c2-1.5,4.5-2.2,7.5-2.2c3,0,5.2,0.4,6.5,1.1v3.9c-1.8-1.2-4.1-1.8-6.9-1.8c-1.9,0-3.5,0.4-4.7,1.2c-1.2,0.8-1.8,2-1.8,3.5
		c0,0.9,0.2,1.7,0.6,2.4c0.4,0.7,1,1.3,1.7,1.8c0.7,0.5,2.2,1.3,4.3,2.3c3,1.5,5.1,2.9,6.3,4.3c1.2,1.4,1.8,3,1.8,4.7
		c0,2.6-0.9,4.6-2.8,6c-1.9,1.4-4.5,2.1-7.9,2.1c-1,0-2.4-0.2-4-0.5s-2.8-0.8-3.5-1.2V85.5z"/>
</g>
</svg>
